<?xml version="1.0" encoding="utf-8"?>
<!-- Generator: Adobe Illustrator 23.0.1, SVG Export Plug-In . SVG Version: 6.00 Build 0)  -->
<svg version="1.1" id="Layer_1" xmlns="http://www.w3.org/2000/svg" xmlns:xlink="http://www.w3.org/1999/xlink" x="0px" y="0px"
	 viewBox="0 0 800 400" style="enable-background:new 0 0 800 400;" xml:space="preserve">
<style type="text/css">
	.st0{fill:#FFFFFF;}
</style>
<g>
	<g>
		<path class="st0" d="M182.9,141.6c0,26.2-17.3,46.7-44.7,46.7c-27.4,0-44.7-20.5-44.7-46.7c0-26.2,17.3-46.8,44.7-46.8
			C165.6,94.8,182.9,115.4,182.9,141.6z M166.1,141.6c0-17.7-10.4-30.9-27.9-30.9c-17.4,0-27.9,13.2-27.9,30.9
			c0,17.7,10.4,30.8,27.9,30.8C155.7,172.4,166.1,159.3,166.1,141.6z"/>
		<path class="st0" d="M284.4,186h-15.5v-62.7L246,186h-14.9l-22.9-62.7V186h-15.1V96.9h21l24.7,68.1l24.7-68.1h21V186z"/>
		<path class="st0" d="M377,138.3V186h-15.4v-10.2c-3.3,5.7-11.4,12.5-26.1,12.5c-24.9,0-41-19.8-41-46.1
			c0-24.4,13.9-47.3,43.6-47.3c21,0,36.5,11.3,38.8,31.7h-16.9c-1-10.1-10.6-16.2-22.4-16.2c-18.1,0-26.6,14.1-26.6,31.3
			c0,18.3,9.7,31,27,31c12.1,0,21.5-6.1,23-19.1h-25.6v-15.4H377z"/>
	</g>
	<g>
		<path class="st0" d="M170.9,302.9h-17.7L113.6,240v62.8H97.3v-89.1h19.1l38.2,61.2v-61.2h16.3V302.9z"/>
		<path class="st0" d="M182.3,302.9v-89.1h59.8v15.5h-43.3v20.7h39.8v15.5h-39.8v21.8h45.7v15.5H182.3z"/>
		<path class="st0" d="M323.5,229.4h-29.3v73.5h-16.4v-73.5H249v-15.5h74.6V229.4z"/>
		<path class="st0" d="M424.8,302.9h-16.3l-19.6-65l-19.6,65h-16.4l-24.3-89.1h17.6l15.6,63.5l19.2-63.5h16.3l19.2,63.6l15.6-63.6
			h16.9L424.8,302.9z"/>
		<path class="st0" d="M542.2,258.5c0,26.2-17.3,46.7-44.7,46.7c-27.4,0-44.7-20.5-44.7-46.7c0-26.2,17.3-46.8,44.7-46.8
			C524.9,211.7,542.2,232.3,542.2,258.5z M525.5,258.5c0-17.7-10.4-30.9-27.9-30.9c-17.4,0-27.9,13.2-27.9,30.9
			c0,17.7,10.4,30.8,27.9,30.8C515,289.3,525.5,276.2,525.5,258.5z"/>
		<path class="st0" d="M625.1,302.9h-19l-22.3-35.5h-15v35.5h-16.4v-89.1h36.6c20.2,0,29.5,13,29.5,26c0,10.4-6,21-17.7,24.7
			L625.1,302.9z M588.6,252.3c9.2,0,13.5-5.9,13.5-12.1c0-5.2-3.1-10.8-12.2-10.8h-21v22.9H588.6z"/>
		<path class="st0" d="M657.3,263.3L648,273v29.9h-16.5v-89.1H648v38.8l34.9-38.8H705l-35.5,36.8l36.9,52.3H685L657.3,263.3z"/>
	</g>
</g>
</svg>
